%TF.GenerationSoftware,KiCad,Pcbnew,9.0.3-9.0.3-0~ubuntu22.04.1*%
%TF.CreationDate,2025-07-10T12:20:13+05:30*%
%TF.ProjectId,ProgramCounter,50726f67-7261-46d4-936f-756e7465722e,rev?*%
%TF.SameCoordinates,Original*%
%TF.FileFunction,Copper,L1,Top*%
%TF.FilePolarity,Positive*%
%FSLAX46Y46*%
G04 Gerber Fmt 4.6, Leading zero omitted, Abs format (unit mm)*
G04 Created by KiCad (PCBNEW 9.0.3-9.0.3-0~ubuntu22.04.1) date 2025-07-10 12:20:13*
%MOMM*%
%LPD*%
G01*
G04 APERTURE LIST*
G04 Aperture macros list*
%AMRoundRect*
0 Rectangle with rounded corners*
0 $1 Rounding radius*
0 $2 $3 $4 $5 $6 $7 $8 $9 X,Y pos of 4 corners*
0 Add a 4 corners polygon primitive as box body*
4,1,4,$2,$3,$4,$5,$6,$7,$8,$9,$2,$3,0*
0 Add four circle primitives for the rounded corners*
1,1,$1+$1,$2,$3*
1,1,$1+$1,$4,$5*
1,1,$1+$1,$6,$7*
1,1,$1+$1,$8,$9*
0 Add four rect primitives between the rounded corners*
20,1,$1+$1,$2,$3,$4,$5,0*
20,1,$1+$1,$4,$5,$6,$7,0*
20,1,$1+$1,$6,$7,$8,$9,0*
20,1,$1+$1,$8,$9,$2,$3,0*%
G04 Aperture macros list end*
%ADD10C,0.300000*%
%TA.AperFunction,NonConductor*%
%ADD11C,0.300000*%
%TD*%
%TA.AperFunction,ComponentPad*%
%ADD12C,2.400000*%
%TD*%
%TA.AperFunction,ComponentPad*%
%ADD13RoundRect,0.250000X0.550000X-0.550000X0.550000X0.550000X-0.550000X0.550000X-0.550000X-0.550000X0*%
%TD*%
%TA.AperFunction,ComponentPad*%
%ADD14C,1.600000*%
%TD*%
%TA.AperFunction,ComponentPad*%
%ADD15R,1.800000X1.800000*%
%TD*%
%TA.AperFunction,ComponentPad*%
%ADD16C,1.800000*%
%TD*%
%TA.AperFunction,ComponentPad*%
%ADD17R,1.350000X1.350000*%
%TD*%
%TA.AperFunction,ComponentPad*%
%ADD18C,1.350000*%
%TD*%
%TA.AperFunction,Conductor*%
%ADD19C,1.000000*%
%TD*%
%TA.AperFunction,Conductor*%
%ADD20C,2.000000*%
%TD*%
G04 APERTURE END LIST*
D10*
D11*
X33804510Y-78550828D02*
X33804510Y-77050828D01*
X33804510Y-77050828D02*
X34375939Y-77050828D01*
X34375939Y-77050828D02*
X34518796Y-77122257D01*
X34518796Y-77122257D02*
X34590225Y-77193685D01*
X34590225Y-77193685D02*
X34661653Y-77336542D01*
X34661653Y-77336542D02*
X34661653Y-77550828D01*
X34661653Y-77550828D02*
X34590225Y-77693685D01*
X34590225Y-77693685D02*
X34518796Y-77765114D01*
X34518796Y-77765114D02*
X34375939Y-77836542D01*
X34375939Y-77836542D02*
X33804510Y-77836542D01*
X36161653Y-78550828D02*
X35661653Y-77836542D01*
X35304510Y-78550828D02*
X35304510Y-77050828D01*
X35304510Y-77050828D02*
X35875939Y-77050828D01*
X35875939Y-77050828D02*
X36018796Y-77122257D01*
X36018796Y-77122257D02*
X36090225Y-77193685D01*
X36090225Y-77193685D02*
X36161653Y-77336542D01*
X36161653Y-77336542D02*
X36161653Y-77550828D01*
X36161653Y-77550828D02*
X36090225Y-77693685D01*
X36090225Y-77693685D02*
X36018796Y-77765114D01*
X36018796Y-77765114D02*
X35875939Y-77836542D01*
X35875939Y-77836542D02*
X35304510Y-77836542D01*
X37090225Y-77050828D02*
X37375939Y-77050828D01*
X37375939Y-77050828D02*
X37518796Y-77122257D01*
X37518796Y-77122257D02*
X37661653Y-77265114D01*
X37661653Y-77265114D02*
X37733082Y-77550828D01*
X37733082Y-77550828D02*
X37733082Y-78050828D01*
X37733082Y-78050828D02*
X37661653Y-78336542D01*
X37661653Y-78336542D02*
X37518796Y-78479400D01*
X37518796Y-78479400D02*
X37375939Y-78550828D01*
X37375939Y-78550828D02*
X37090225Y-78550828D01*
X37090225Y-78550828D02*
X36947368Y-78479400D01*
X36947368Y-78479400D02*
X36804510Y-78336542D01*
X36804510Y-78336542D02*
X36733082Y-78050828D01*
X36733082Y-78050828D02*
X36733082Y-77550828D01*
X36733082Y-77550828D02*
X36804510Y-77265114D01*
X36804510Y-77265114D02*
X36947368Y-77122257D01*
X36947368Y-77122257D02*
X37090225Y-77050828D01*
X39161654Y-77122257D02*
X39018797Y-77050828D01*
X39018797Y-77050828D02*
X38804511Y-77050828D01*
X38804511Y-77050828D02*
X38590225Y-77122257D01*
X38590225Y-77122257D02*
X38447368Y-77265114D01*
X38447368Y-77265114D02*
X38375939Y-77407971D01*
X38375939Y-77407971D02*
X38304511Y-77693685D01*
X38304511Y-77693685D02*
X38304511Y-77907971D01*
X38304511Y-77907971D02*
X38375939Y-78193685D01*
X38375939Y-78193685D02*
X38447368Y-78336542D01*
X38447368Y-78336542D02*
X38590225Y-78479400D01*
X38590225Y-78479400D02*
X38804511Y-78550828D01*
X38804511Y-78550828D02*
X38947368Y-78550828D01*
X38947368Y-78550828D02*
X39161654Y-78479400D01*
X39161654Y-78479400D02*
X39233082Y-78407971D01*
X39233082Y-78407971D02*
X39233082Y-77907971D01*
X39233082Y-77907971D02*
X38947368Y-77907971D01*
X40733082Y-78550828D02*
X40233082Y-77836542D01*
X39875939Y-78550828D02*
X39875939Y-77050828D01*
X39875939Y-77050828D02*
X40447368Y-77050828D01*
X40447368Y-77050828D02*
X40590225Y-77122257D01*
X40590225Y-77122257D02*
X40661654Y-77193685D01*
X40661654Y-77193685D02*
X40733082Y-77336542D01*
X40733082Y-77336542D02*
X40733082Y-77550828D01*
X40733082Y-77550828D02*
X40661654Y-77693685D01*
X40661654Y-77693685D02*
X40590225Y-77765114D01*
X40590225Y-77765114D02*
X40447368Y-77836542D01*
X40447368Y-77836542D02*
X39875939Y-77836542D01*
X41304511Y-78122257D02*
X42018797Y-78122257D01*
X41161654Y-78550828D02*
X41661654Y-77050828D01*
X41661654Y-77050828D02*
X42161654Y-78550828D01*
X42661653Y-78550828D02*
X42661653Y-77050828D01*
X42661653Y-77050828D02*
X43161653Y-78122257D01*
X43161653Y-78122257D02*
X43661653Y-77050828D01*
X43661653Y-77050828D02*
X43661653Y-78550828D01*
X46375939Y-78407971D02*
X46304511Y-78479400D01*
X46304511Y-78479400D02*
X46090225Y-78550828D01*
X46090225Y-78550828D02*
X45947368Y-78550828D01*
X45947368Y-78550828D02*
X45733082Y-78479400D01*
X45733082Y-78479400D02*
X45590225Y-78336542D01*
X45590225Y-78336542D02*
X45518796Y-78193685D01*
X45518796Y-78193685D02*
X45447368Y-77907971D01*
X45447368Y-77907971D02*
X45447368Y-77693685D01*
X45447368Y-77693685D02*
X45518796Y-77407971D01*
X45518796Y-77407971D02*
X45590225Y-77265114D01*
X45590225Y-77265114D02*
X45733082Y-77122257D01*
X45733082Y-77122257D02*
X45947368Y-77050828D01*
X45947368Y-77050828D02*
X46090225Y-77050828D01*
X46090225Y-77050828D02*
X46304511Y-77122257D01*
X46304511Y-77122257D02*
X46375939Y-77193685D01*
X47304511Y-77050828D02*
X47590225Y-77050828D01*
X47590225Y-77050828D02*
X47733082Y-77122257D01*
X47733082Y-77122257D02*
X47875939Y-77265114D01*
X47875939Y-77265114D02*
X47947368Y-77550828D01*
X47947368Y-77550828D02*
X47947368Y-78050828D01*
X47947368Y-78050828D02*
X47875939Y-78336542D01*
X47875939Y-78336542D02*
X47733082Y-78479400D01*
X47733082Y-78479400D02*
X47590225Y-78550828D01*
X47590225Y-78550828D02*
X47304511Y-78550828D01*
X47304511Y-78550828D02*
X47161654Y-78479400D01*
X47161654Y-78479400D02*
X47018796Y-78336542D01*
X47018796Y-78336542D02*
X46947368Y-78050828D01*
X46947368Y-78050828D02*
X46947368Y-77550828D01*
X46947368Y-77550828D02*
X47018796Y-77265114D01*
X47018796Y-77265114D02*
X47161654Y-77122257D01*
X47161654Y-77122257D02*
X47304511Y-77050828D01*
X48590225Y-77050828D02*
X48590225Y-78265114D01*
X48590225Y-78265114D02*
X48661654Y-78407971D01*
X48661654Y-78407971D02*
X48733083Y-78479400D01*
X48733083Y-78479400D02*
X48875940Y-78550828D01*
X48875940Y-78550828D02*
X49161654Y-78550828D01*
X49161654Y-78550828D02*
X49304511Y-78479400D01*
X49304511Y-78479400D02*
X49375940Y-78407971D01*
X49375940Y-78407971D02*
X49447368Y-78265114D01*
X49447368Y-78265114D02*
X49447368Y-77050828D01*
X50161654Y-78550828D02*
X50161654Y-77050828D01*
X50161654Y-77050828D02*
X51018797Y-78550828D01*
X51018797Y-78550828D02*
X51018797Y-77050828D01*
X51518798Y-77050828D02*
X52375941Y-77050828D01*
X51947369Y-78550828D02*
X51947369Y-77050828D01*
X52875940Y-77765114D02*
X53375940Y-77765114D01*
X53590226Y-78550828D02*
X52875940Y-78550828D01*
X52875940Y-78550828D02*
X52875940Y-77050828D01*
X52875940Y-77050828D02*
X53590226Y-77050828D01*
X55090226Y-78550828D02*
X54590226Y-77836542D01*
X54233083Y-78550828D02*
X54233083Y-77050828D01*
X54233083Y-77050828D02*
X54804512Y-77050828D01*
X54804512Y-77050828D02*
X54947369Y-77122257D01*
X54947369Y-77122257D02*
X55018798Y-77193685D01*
X55018798Y-77193685D02*
X55090226Y-77336542D01*
X55090226Y-77336542D02*
X55090226Y-77550828D01*
X55090226Y-77550828D02*
X55018798Y-77693685D01*
X55018798Y-77693685D02*
X54947369Y-77765114D01*
X54947369Y-77765114D02*
X54804512Y-77836542D01*
X54804512Y-77836542D02*
X54233083Y-77836542D01*
D12*
%TO.P,R1,1*%
%TO.N,Net-(GND1-Pin_1)*%
X33430000Y-53000000D03*
%TO.P,R1,2*%
%TO.N,Net-(D1-K)*%
X53750000Y-53000000D03*
%TD*%
D13*
%TO.P,U1,1,A->B*%
%TO.N,Net-(GND1-Pin_1)*%
X41760000Y-71000000D03*
D14*
%TO.P,U1,2,A0*%
%TO.N,unconnected-(U1-A0-Pad2)*%
X44300000Y-71000000D03*
%TO.P,U1,3,A1*%
%TO.N,unconnected-(U1-A1-Pad3)*%
X46840000Y-71000000D03*
%TO.P,U1,4,A2*%
%TO.N,unconnected-(U1-A2-Pad4)*%
X49380000Y-71000000D03*
%TO.P,U1,5,A3*%
%TO.N,unconnected-(U1-A3-Pad5)*%
X51920000Y-71000000D03*
%TO.P,U1,6,A4*%
%TO.N,Net-(BUS1-Pin_4)*%
X54460000Y-71000000D03*
%TO.P,U1,7,A5*%
%TO.N,Net-(BUS1-Pin_3)*%
X57000000Y-71000000D03*
%TO.P,U1,8,A6*%
%TO.N,Net-(BUS1-Pin_2)*%
X59540000Y-71000000D03*
%TO.P,U1,9,A7*%
%TO.N,Net-(BUS1-Pin_1)*%
X62080000Y-71000000D03*
%TO.P,U1,10,GND*%
%TO.N,Net-(GND1-Pin_1)*%
X64620000Y-71000000D03*
%TO.P,U1,11,B7*%
%TO.N,Net-(D4-A)*%
X64620000Y-63380000D03*
%TO.P,U1,12,B6*%
%TO.N,Net-(D3-A)*%
X62080000Y-63380000D03*
%TO.P,U1,13,B5*%
%TO.N,Net-(D2-A)*%
X59540000Y-63380000D03*
%TO.P,U1,14,B4*%
%TO.N,Net-(D1-A)*%
X57000000Y-63380000D03*
%TO.P,U1,15,B3*%
%TO.N,unconnected-(U1-B3-Pad15)*%
X54460000Y-63380000D03*
%TO.P,U1,16,B2*%
%TO.N,unconnected-(U1-B2-Pad16)*%
X51920000Y-63380000D03*
%TO.P,U1,17,B1*%
%TO.N,unconnected-(U1-B1-Pad17)*%
X49380000Y-63380000D03*
%TO.P,U1,18,B0*%
%TO.N,unconnected-(U1-B0-Pad18)*%
X46840000Y-63380000D03*
%TO.P,U1,19,CE*%
%TO.N,Net-(U1-CE)*%
X44300000Y-63380000D03*
%TO.P,U1,20,VCC*%
%TO.N,Net-(U1-VCC)*%
X41760000Y-63380000D03*
%TD*%
D13*
%TO.P,U2,1,~{MR}*%
%TO.N,Net-(U2-~{MR})*%
X76360000Y-71305000D03*
D14*
%TO.P,U2,2,CP*%
%TO.N,Net-(CLK1-Pin_1)*%
X78900000Y-71305000D03*
%TO.P,U2,3,D0*%
%TO.N,Net-(BUS1-Pin_1)*%
X81440000Y-71305000D03*
%TO.P,U2,4,D1*%
%TO.N,Net-(BUS1-Pin_2)*%
X83980000Y-71305000D03*
%TO.P,U2,5,D2*%
%TO.N,Net-(BUS1-Pin_3)*%
X86520000Y-71305000D03*
%TO.P,U2,6,D3*%
%TO.N,Net-(BUS1-Pin_4)*%
X89060000Y-71305000D03*
%TO.P,U2,7,CEP*%
%TO.N,Net-(CE1-Pin_1)*%
X91600000Y-71305000D03*
%TO.P,U2,8,GND*%
%TO.N,Net-(GND1-Pin_1)*%
X94140000Y-71305000D03*
%TO.P,U2,9,~{PE}*%
%TO.N,Net-(U2-~{PE})*%
X94140000Y-63685000D03*
%TO.P,U2,10,CET*%
%TO.N,Net-(CE1-Pin_1)*%
X91600000Y-63685000D03*
%TO.P,U2,11,Q3*%
%TO.N,Net-(D1-A)*%
X89060000Y-63685000D03*
%TO.P,U2,12,Q2*%
%TO.N,Net-(D2-A)*%
X86520000Y-63685000D03*
%TO.P,U2,13,Q1*%
%TO.N,Net-(D3-A)*%
X83980000Y-63685000D03*
%TO.P,U2,14,Q0*%
%TO.N,Net-(D4-A)*%
X81440000Y-63685000D03*
%TO.P,U2,15,TC*%
%TO.N,unconnected-(U2-TC-Pad15)*%
X78900000Y-63685000D03*
%TO.P,U2,16,VCC*%
%TO.N,Net-(U1-VCC)*%
X76360000Y-63685000D03*
%TD*%
D15*
%TO.P,D3,1,K*%
%TO.N,Net-(D3-K)*%
X80500000Y-44475000D03*
D16*
%TO.P,D3,2,A*%
%TO.N,Net-(D3-A)*%
X80500000Y-47015000D03*
%TD*%
D17*
%TO.P,~{CO}1,1,Pin_1*%
%TO.N,Net-(U1-CE)*%
X99250000Y-46500000D03*
%TD*%
%TO.P,GND1,1,Pin_1*%
%TO.N,Net-(GND1-Pin_1)*%
X36000000Y-71000000D03*
%TD*%
%TO.P,~{CLR}1,1,Pin_1*%
%TO.N,Net-(U2-~{MR})*%
X99270000Y-51555000D03*
%TD*%
%TO.P,CLK1,1,Pin_1*%
%TO.N,Net-(CLK1-Pin_1)*%
X99270000Y-57555000D03*
%TD*%
D15*
%TO.P,D2,1,K*%
%TO.N,Net-(D2-K)*%
X73030000Y-44475000D03*
D16*
%TO.P,D2,2,A*%
%TO.N,Net-(D2-A)*%
X73030000Y-47015000D03*
%TD*%
D15*
%TO.P,D4,1,K*%
%TO.N,Net-(D4-K)*%
X87970000Y-44475000D03*
D16*
%TO.P,D4,2,A*%
%TO.N,Net-(D4-A)*%
X87970000Y-47015000D03*
%TD*%
D12*
%TO.P,R2,1*%
%TO.N,Net-(GND1-Pin_1)*%
X33430000Y-48000000D03*
%TO.P,R2,2*%
%TO.N,Net-(D2-K)*%
X53750000Y-48000000D03*
%TD*%
D17*
%TO.P,~{J}1,1,Pin_1*%
%TO.N,Net-(U2-~{PE})*%
X99020000Y-63555000D03*
%TD*%
%TO.P,VCC1,1,Pin_1*%
%TO.N,Net-(U1-VCC)*%
X36000000Y-63500000D03*
%TD*%
D15*
%TO.P,D1,1,K*%
%TO.N,Net-(D1-K)*%
X65560000Y-44475000D03*
D16*
%TO.P,D1,2,A*%
%TO.N,Net-(D1-A)*%
X65560000Y-47015000D03*
%TD*%
D17*
%TO.P,CE1,1,Pin_1*%
%TO.N,Net-(CE1-Pin_1)*%
X99020000Y-71305000D03*
%TD*%
D12*
%TO.P,R4,1*%
%TO.N,Net-(GND1-Pin_1)*%
X33340000Y-37500000D03*
%TO.P,R4,2*%
%TO.N,Net-(D4-K)*%
X53660000Y-37500000D03*
%TD*%
D17*
%TO.P,BUS1,1,Pin_1*%
%TO.N,Net-(BUS1-Pin_1)*%
X70500000Y-74750000D03*
D18*
%TO.P,BUS1,2,Pin_2*%
%TO.N,Net-(BUS1-Pin_2)*%
X70500000Y-76750000D03*
%TO.P,BUS1,3,Pin_3*%
%TO.N,Net-(BUS1-Pin_3)*%
X70500000Y-78750000D03*
%TO.P,BUS1,4,Pin_4*%
%TO.N,Net-(BUS1-Pin_4)*%
X70500000Y-80750000D03*
%TD*%
D12*
%TO.P,R3,1*%
%TO.N,Net-(GND1-Pin_1)*%
X33430000Y-42750000D03*
%TO.P,R3,2*%
%TO.N,Net-(D3-K)*%
X53750000Y-42750000D03*
%TD*%
D19*
%TO.N,Net-(D3-A)*%
X80500000Y-47015000D02*
X78445000Y-47015000D01*
X78445000Y-47015000D02*
X62080000Y-63380000D01*
%TO.N,Net-(D2-A)*%
X59540000Y-63380000D02*
X59540000Y-60505000D01*
X59540000Y-60505000D02*
X73030000Y-47015000D01*
%TO.N,Net-(BUS1-Pin_4)*%
X70500000Y-80750000D02*
X79615000Y-80750000D01*
X79615000Y-80750000D02*
X89060000Y-71305000D01*
%TO.N,Net-(BUS1-Pin_3)*%
X70500000Y-78750000D02*
X79075000Y-78750000D01*
X79075000Y-78750000D02*
X86520000Y-71305000D01*
%TO.N,Net-(BUS1-Pin_4)*%
X54460000Y-71000000D02*
X64210000Y-80750000D01*
X64210000Y-80750000D02*
X70500000Y-80750000D01*
%TO.N,Net-(BUS1-Pin_3)*%
X57000000Y-71000000D02*
X64750000Y-78750000D01*
X64750000Y-78750000D02*
X70500000Y-78750000D01*
%TO.N,Net-(BUS1-Pin_2)*%
X70500000Y-76750000D02*
X78535000Y-76750000D01*
X78535000Y-76750000D02*
X83980000Y-71305000D01*
X59540000Y-71000000D02*
X65290000Y-76750000D01*
X65290000Y-76750000D02*
X70500000Y-76750000D01*
%TO.N,Net-(BUS1-Pin_1)*%
X70500000Y-74750000D02*
X77995000Y-74750000D01*
X77995000Y-74750000D02*
X81440000Y-71305000D01*
X62080000Y-71000000D02*
X65830000Y-74750000D01*
X65830000Y-74750000D02*
X70500000Y-74750000D01*
%TO.N,Net-(GND1-Pin_1)*%
X43705000Y-69055000D02*
X64750000Y-69055000D01*
X64620000Y-71000000D02*
X64620000Y-69185000D01*
X64620000Y-69185000D02*
X64750000Y-69055000D01*
X41760000Y-71000000D02*
X43705000Y-69055000D01*
X64750000Y-69055000D02*
X91890000Y-69055000D01*
%TO.N,Net-(U1-VCC)*%
X41760000Y-63380000D02*
X44130000Y-65750000D01*
X44130000Y-65750000D02*
X74295000Y-65750000D01*
X74295000Y-65750000D02*
X76360000Y-63685000D01*
%TO.N,Net-(D1-K)*%
X62275000Y-44475000D02*
X65560000Y-44475000D01*
X53750000Y-53000000D02*
X62275000Y-44475000D01*
%TO.N,Net-(D1-A)*%
X57000000Y-63380000D02*
X57000000Y-55575000D01*
X57000000Y-55575000D02*
X65560000Y-47015000D01*
%TO.N,Net-(D3-K)*%
X57000000Y-39500000D02*
X75525000Y-39500000D01*
X75525000Y-39500000D02*
X80500000Y-44475000D01*
X53750000Y-42750000D02*
X57000000Y-39500000D01*
%TO.N,Net-(D4-A)*%
X87970000Y-47015000D02*
X71742500Y-63242500D01*
X71605000Y-63380000D02*
X64620000Y-63380000D01*
X71742500Y-63242500D02*
X71605000Y-63380000D01*
X71742500Y-63242500D02*
X72856000Y-62129000D01*
%TO.N,Net-(D2-K)*%
X53750000Y-46250000D02*
X57750000Y-42250000D01*
X53750000Y-48000000D02*
X53750000Y-46250000D01*
X70805000Y-42250000D02*
X73030000Y-44475000D01*
X57750000Y-42250000D02*
X70805000Y-42250000D01*
%TO.N,Net-(CE1-Pin_1)*%
X91600000Y-71305000D02*
X94100000Y-73805000D01*
X96520000Y-73805000D02*
X99020000Y-71305000D01*
X91600000Y-63685000D02*
X99020000Y-71105000D01*
X94100000Y-73805000D02*
X96520000Y-73805000D01*
X99020000Y-71105000D02*
X99020000Y-71305000D01*
%TO.N,Net-(GND1-Pin_1)*%
X36000000Y-71000000D02*
X41760000Y-71000000D01*
D20*
X33430000Y-37750000D02*
X33430000Y-42900000D01*
X33430000Y-42900000D02*
X33430000Y-48050000D01*
D19*
X33430000Y-68430000D02*
X33430000Y-53000000D01*
X36000000Y-71000000D02*
X33430000Y-68430000D01*
X33430000Y-50320000D02*
X33430000Y-48050000D01*
D20*
X33430000Y-48050000D02*
X33430000Y-53200000D01*
D19*
X91890000Y-69055000D02*
X94140000Y-71305000D01*
%TO.N,Net-(U1-VCC)*%
X41640000Y-63500000D02*
X41760000Y-63380000D01*
X36000000Y-63500000D02*
X41640000Y-63500000D01*
%TO.N,Net-(U2-~{PE})*%
X94140000Y-63685000D02*
X98890000Y-63685000D01*
X98890000Y-63685000D02*
X99020000Y-63555000D01*
%TO.N,Net-(D4-K)*%
X53660000Y-37500000D02*
X80995000Y-37500000D01*
X80995000Y-37500000D02*
X87970000Y-44475000D01*
%TD*%
M02*
