%TF.GenerationSoftware,KiCad,Pcbnew,9.0.3-9.0.3-0~ubuntu22.04.1*%
%TF.CreationDate,2025-07-10T12:20:55+05:30*%
%TF.ProjectId,ProgramCounter,50726f67-7261-46d4-936f-756e7465722e,rev?*%
%TF.SameCoordinates,Original*%
%TF.FileFunction,Plated,1,2,PTH,Drill*%
%TF.FilePolarity,Positive*%
%FSLAX46Y46*%
G04 Gerber Fmt 4.6, Leading zero omitted, Abs format (unit mm)*
G04 Created by KiCad (PCBNEW 9.0.3-9.0.3-0~ubuntu22.04.1) date 2025-07-10 12:20:55*
%MOMM*%
%LPD*%
G01*
G04 APERTURE LIST*
%TA.AperFunction,ComponentDrill*%
%ADD10C,0.800000*%
%TD*%
%TA.AperFunction,ComponentDrill*%
%ADD11C,0.900000*%
%TD*%
%TA.AperFunction,ComponentDrill*%
%ADD12C,1.200000*%
%TD*%
G04 APERTURE END LIST*
D10*
%TO.C,VCC1*%
X36000000Y-63500000D03*
%TO.C,GND1*%
X36000000Y-71000000D03*
%TO.C,U1*%
X41760000Y-63380000D03*
X41760000Y-71000000D03*
X44300000Y-63380000D03*
X44300000Y-71000000D03*
X46840000Y-63380000D03*
X46840000Y-71000000D03*
X49380000Y-63380000D03*
X49380000Y-71000000D03*
X51920000Y-63380000D03*
X51920000Y-71000000D03*
X54460000Y-63380000D03*
X54460000Y-71000000D03*
X57000000Y-63380000D03*
X57000000Y-71000000D03*
X59540000Y-63380000D03*
X59540000Y-71000000D03*
X62080000Y-63380000D03*
X62080000Y-71000000D03*
X64620000Y-63380000D03*
X64620000Y-71000000D03*
%TO.C,BUS1*%
X70500000Y-74750000D03*
X70500000Y-76750000D03*
X70500000Y-78750000D03*
X70500000Y-80750000D03*
%TO.C,U2*%
X76360000Y-63685000D03*
X76360000Y-71305000D03*
X78900000Y-63685000D03*
X78900000Y-71305000D03*
X81440000Y-63685000D03*
X81440000Y-71305000D03*
X83980000Y-63685000D03*
X83980000Y-71305000D03*
X86520000Y-63685000D03*
X86520000Y-71305000D03*
X89060000Y-63685000D03*
X89060000Y-71305000D03*
X91600000Y-63685000D03*
X91600000Y-71305000D03*
X94140000Y-63685000D03*
X94140000Y-71305000D03*
%TO.C,~{J}1*%
X99020000Y-63555000D03*
%TO.C,CE1*%
X99020000Y-71305000D03*
%TO.C,~{CO}1*%
X99250000Y-46500000D03*
%TO.C,~{CLR}1*%
X99270000Y-51555000D03*
%TO.C,CLK1*%
X99270000Y-57555000D03*
D11*
%TO.C,D1*%
X65560000Y-44475000D03*
X65560000Y-47015000D03*
%TO.C,D2*%
X73030000Y-44475000D03*
X73030000Y-47015000D03*
%TO.C,D3*%
X80500000Y-44475000D03*
X80500000Y-47015000D03*
%TO.C,D4*%
X87970000Y-44475000D03*
X87970000Y-47015000D03*
D12*
%TO.C,R4*%
X33340000Y-37500000D03*
%TO.C,R3*%
X33430000Y-42750000D03*
%TO.C,R2*%
X33430000Y-48000000D03*
%TO.C,R1*%
X33430000Y-53000000D03*
%TO.C,R4*%
X53660000Y-37500000D03*
%TO.C,R3*%
X53750000Y-42750000D03*
%TO.C,R2*%
X53750000Y-48000000D03*
%TO.C,R1*%
X53750000Y-53000000D03*
M02*
